# xmcd
# 
# Track frame offsets:
#     150
#     14325
#     32902
#     51892
#     75350
#     98017
#     120252
#     138240
#     155330
#     179135
# 
# Disc length: 2613
# 
# Revision: 1
# Processed by: cddbd v1.5.2PL0 Copyright (c) Steve Scherf et al.
# Submitted via: BonkEnc v1.0.5
# 
DISCID=740a330a
DTITLE=High Energy - James Cotton Band
DYEAR=1975
DGENRE=Blues
TTITLE0=Hot 'n Cold
TTITLE1=Chicken Heads
TTITLE2=Hard Time Blues
TTITLE3=I Got A Feelin'
TTITLE4=Weather Report (The Weather Man Said)
TTITLE5=Keep Cooking Mama
TTITLE6=Fannie Mae
TTITLE7=Caldonia
TTITLE8=Rock 'n Roll Music (Ain't Nothing New)
TTITLE9=James' Theme
EXTD=
EXTT0=
EXTT1=
EXTT2=
EXTT3=
EXTT4=
EXTT5=
EXTT6=
EXTT7=
EXTT8=
EXTT9=
PLAYORDER=
